<?xml version="1.0" standalone="no"?>
<!DOCTYPE svg PUBLIC "-//W3C//DTD SVG 20010904//EN"
 "http://www.w3.org/TR/2001/REC-SVG-20010904/DTD/svg10.dtd">
<svg version="1.0" xmlns="http://www.w3.org/2000/svg"
 width="1500.000000pt" height="1125.000000pt" viewBox="0 0 1500.000000 1125.000000"
 preserveAspectRatio="xMidYMid meet">

<g transform="translate(0.000000,1125.000000) scale(0.100000,-0.100000)"
fill="#ffffff" stroke="none">
<path d="M7060 8285 c-156 -33 -281 -100 -388 -206 -106 -105 -140 -172 -207
-404 -347 -1197 -922 -2356 -1685 -3397 -158 -215 -195 -275 -229 -376 -86
-253 -20 -525 175 -727 144 -149 305 -223 504 -232 128 -6 201 4 291 41 121
49 169 87 439 350 146 143 340 328 431 411 866 789 1806 1456 2836 2013 205
111 755 382 887 437 91 38 211 139 272 229 138 203 153 507 36 731 -43 81
-140 189 -215 238 -209 138 -500 152 -716 35 -193 -105 -376 -302 -520 -563
-113 -203 -412 -600 -660 -875 -134 -149 -404 -415 -544 -535 -487 -418 -1094
-763 -1452 -826 -85 -15 -211 -7 -256 16 -108 55 -156 151 -166 335 -25 454
281 1202 637 1560 156 156 267 214 415 215 82 0 96 -3 156 -32 93 -46 188
-150 329 -358 194 -286 273 -352 410 -343 167 12 311 156 364 364 72 285 30
674 -116 1064 -143 385 -349 680 -538 772 -41 21 -102 45 -135 54 -81 22 -271
27 -355 9z"/>
<path d="M8613 5051 c-163 -42 -299 -198 -311 -359 -6 -88 17 -170 113 -412
72 -182 151 -440 218 -715 19 -78 49 -170 67 -205 223 -447 771 -558 1126
-228 242 227 303 522 164 803 -56 115 -109 176 -272 315 -168 145 -444 419
-578 575 -121 140 -130 148 -220 192 -70 35 -82 37 -175 40 -55 1 -115 -2
-132 -6z"/>
</g>
</svg>
