<?xml version="1.0" standalone="no"?>
<!DOCTYPE svg PUBLIC "-//W3C//DTD SVG 20010904//EN"
 "http://www.w3.org/TR/2001/REC-SVG-20010904/DTD/svg10.dtd">
<svg version="1.0" xmlns="http://www.w3.org/2000/svg"
 width="2400.000000pt" height="404.000000pt" viewBox="0 0 2400.000000 404.000000"
 preserveAspectRatio="xMidYMid meet">
<g transform="translate(0.000000,404.000000) scale(0.100000,-0.100000)"
fill="white" stroke="none">
<path d="M8387 3055 c-9 -9 -17 -22 -17 -28 -7 -199 2 -782 11 -793 14 -17
100 -19 117 -2 19 19 17 801 -3 818 -25 21 -89 24 -108 5z"/>
<path d="M3556 3037 c-36 -20 -119 -152 -167 -267 -6 -14 -15 -32 -20 -40 -5
-8 -19 -35 -32 -60 -13 -25 -49 -94 -81 -155 -31 -60 -61 -117 -65 -125 -4 -8
-15 -28 -24 -45 -8 -16 -41 -79 -72 -140 -31 -60 -76 -146 -100 -190 -70 -131
-95 -181 -95 -193 0 -6 -6 -17 -13 -24 -7 -7 -30 -47 -51 -88 -49 -99 -194
-380 -234 -453 -55 -103 -49 -173 21 -216 34 -21 44 -21 509 -21 l476 0 41 41
c23 22 51 59 62 82 10 23 46 92 79 152 33 61 69 128 80 150 11 22 32 60 46 85
57 99 114 212 114 224 0 8 6 19 14 25 8 7 17 24 21 39 7 31 51 102 64 102 4 0
26 -37 48 -82 91 -187 104 -214 112 -228 5 -8 32 -62 61 -120 194 -387 215
-424 249 -447 61 -41 126 -21 172 53 18 30 19 54 19 469 0 587 23 552 -345
541 -255 -7 -281 -5 -290 27 -6 21 -151 313 -349 702 -114 225 -154 257 -250
202z m81 -154 c11 -16 56 -104 101 -198 46 -93 87 -177 92 -185 5 -8 34 -64
65 -125 31 -60 69 -132 84 -160 53 -94 81 -147 81 -156 0 -8 -25 -53 -87 -157
-12 -21 -29 -50 -37 -67 -9 -16 -34 -61 -55 -100 -39 -70 -93 -170 -138 -255
-13 -25 -44 -81 -68 -125 -24 -44 -58 -108 -75 -143 l-32 -62 -431 2 c-505 3
-461 -13 -372 144 31 54 63 113 71 129 8 17 43 84 78 150 36 66 88 165 116
220 53 102 77 148 91 175 5 8 34 65 65 125 31 61 87 169 124 240 37 72 118
230 179 353 62 122 116 222 121 222 5 0 17 -12 27 -27z m1021 -1300 c2 -311 0
-393 -10 -393 -7 1 -80 136 -163 301 -82 165 -162 321 -177 347 -53 93 -67
125 -62 134 3 4 96 7 207 6 l202 -3 3 -392z"/>
<path d="M5647 3000 c-15 -33 -27 -68 -27 -77 -1 -10 -9 -36 -20 -58 -11 -22
-20 -47 -20 -55 0 -8 -9 -33 -20 -55 -11 -22 -19 -46 -20 -53 0 -8 -7 -28 -15
-45 -15 -34 -38 -96 -60 -165 -8 -23 -21 -52 -30 -64 -8 -13 -15 -29 -15 -37
0 -8 -12 -38 -27 -67 -39 -77 -26 -104 52 -104 l56 0 19 43 c10 23 24 65 30
92 15 65 13 65 173 65 l138 0 19 -46 c11 -25 20 -55 20 -65 0 -61 43 -93 115
-87 54 4 65 27 39 80 -45 91 -52 107 -94 228 -7 19 -21 54 -31 78 -11 23 -19
48 -19 55 -1 6 -9 30 -20 52 -11 22 -19 48 -20 57 0 10 -8 37 -19 60 -23 54
-40 101 -55 157 -15 52 -37 71 -86 71 -35 0 -38 -3 -63 -60z m106 -233 c10
-29 24 -72 32 -97 7 -25 19 -59 26 -76 22 -56 11 -64 -90 -64 -126 0 -126 -2
-33 235 31 79 38 79 65 2z"/>
<path d="M6354 3048 c-12 -19 -13 -801 -2 -815 16 -20 105 -17 116 4 6 10 8
115 4 258 -5 253 1 295 33 223 9 -18 19 -40 24 -48 5 -8 18 -35 29 -60 11 -25
32 -70 46 -101 14 -31 26 -59 26 -63 0 -25 47 -66 75 -66 29 0 75 41 75 66 0
4 8 26 19 48 10 23 31 68 45 101 43 95 72 147 82 143 5 -2 9 -112 9 -248 0
-135 4 -251 8 -257 5 -8 29 -13 56 -13 27 0 53 6 58 13 11 13 9 800 -2 817 -3
5 -27 10 -53 10 -51 0 -102 -40 -102 -81 0 -10 -10 -38 -21 -61 -12 -24 -30
-61 -40 -83 -10 -22 -36 -79 -59 -126 -22 -48 -40 -91 -40 -97 0 -20 -39 -35
-56 -21 -8 6 -14 16 -14 22 0 5 -18 46 -39 91 -88 183 -121 258 -121 276 0 40
-51 80 -102 80 -26 0 -50 -5 -54 -12z"/>
<path d="M7446 3047 c-21 -15 -27 -790 -7 -810 19 -19 361 -9 417 12 81 31
131 91 139 167 11 102 0 150 -46 195 l-40 39 40 52 c40 49 41 53 41 128 0 62
-4 82 -20 103 -11 14 -20 29 -20 34 0 15 -62 57 -105 71 -57 18 -376 26 -399
9z m372 -140 c41 -27 42 -28 42 -85 0 -95 -24 -110 -170 -113 -64 -2 -122 1
-129 5 -11 7 -12 150 -1 213 1 7 49 11 125 10 79 -2 95 -6 133 -30z m-1 -327
c36 -13 53 -46 53 -103 0 -102 -39 -127 -194 -127 -68 0 -107 4 -112 11 -14
23 -17 198 -4 214 15 18 208 22 257 5z"/>
<path d="M8891 3030 c-15 -22 -16 -42 -9 -185 7 -155 2 -509 -8 -551 -3 -12 3
-30 14 -44 19 -23 21 -23 254 -27 263 -4 260 -5 262 66 1 70 -4 72 -195 65
-210 -9 -199 -15 -199 121 0 125 -12 118 181 109 164 -8 156 -11 161 66 3 61
2 62 -166 59 -84 -1 -158 1 -164 5 -14 9 -17 183 -3 205 7 12 43 14 190 12
l181 -2 10 26 c10 27 4 71 -12 92 -8 9 -69 12 -245 11 l-235 -2 -17 -26z"/>
<path d="M9745 3051 c-8 -14 -10 -805 -1 -819 11 -18 101 -15 116 3 9 11 11
79 9 277 -4 231 -2 263 11 266 10 2 22 -11 33 -35 9 -21 45 -82 79 -135 35
-53 70 -109 80 -125 79 -135 142 -231 159 -245 25 -21 92 -24 107 -5 13 15 18
779 7 810 -12 29 -113 24 -124 -5 -4 -13 -5 -129 -1 -258 4 -131 3 -246 -2
-260 l-9 -25 -20 25 c-11 14 -29 41 -40 60 -11 19 -39 65 -62 102 -23 37 -73
118 -112 180 -88 143 -113 181 -128 190 -17 11 -95 10 -102 -1z"/>
<path d="M10639 3032 c-22 -28 -17 -68 11 -93 16 -13 36 -15 115 -11 l96 5 -2
-346 c-1 -190 2 -350 5 -356 11 -17 115 -14 122 3 3 7 6 166 7 352 l2 339 85
2 c47 1 93 2 102 2 25 1 51 46 44 75 -13 54 -14 54 -301 53 l-267 -1 -19 -24z"/>
<path d="M11545 1863 c-220 -43 -277 -127 -281 -413 -3 -315 77 -430 302 -430
154 0 228 48 283 183 34 83 22 107 -53 107 -59 0 -70 -8 -81 -58 -16 -74 -57
-102 -149 -102 -138 0 -166 48 -166 290 0 216 26 271 137 295 73 15 173 -44
173 -102 0 -49 18 -63 85 -66 56 -2 60 0 69 24 19 53 -48 174 -121 220 -48 30
-160 60 -198 52z"/>
<path d="M18462 1847 c-99 -30 -153 -82 -177 -172 -42 -155 63 -273 261 -291
113 -10 154 -43 154 -122 0 -75 -29 -107 -105 -116 -109 -14 -186 24 -201 101
-9 45 -25 55 -81 51 l-48 -3 -3 -42 c-17 -228 375 -325 529 -131 39 50 39 50
39 139 l0 88 -42 52 c-49 59 -125 93 -233 105 -127 14 -183 85 -135 167 61
104 215 86 266 -29 26 -59 62 -76 117 -55 82 32 -33 219 -157 255 -89 26 -107
26 -184 3z"/>
<path d="M19935 1863 c-71 -17 -185 -69 -185 -85 0 -3 -11 -19 -24 -35 -56
-66 -77 -405 -34 -547 34 -113 132 -176 273 -176 201 0 294 108 295 341 0 117
11 109 -164 109 -145 0 -156 -4 -156 -56 0 -51 21 -64 104 -64 97 0 107 -10
80 -88 -33 -98 -55 -115 -152 -115 -140 -1 -172 52 -172 289 0 219 33 284 152
300 65 9 138 -29 157 -82 28 -82 54 -98 128 -78 33 9 34 26 8 99 -31 90 -91
146 -179 168 -83 21 -108 25 -131 20z"/>
<path d="M7433 1841 c-145 -49 -183 -123 -188 -360 -5 -286 24 -369 153 -438
64 -34 219 -34 289 1 89 45 143 125 143 212 l0 55 -62 -3 -63 -3 -10 -44 c-18
-83 -58 -111 -155 -111 -147 0 -166 40 -158 337 4 183 7 191 86 230 105 51
192 9 228 -112 8 -26 16 -31 58 -38 70 -11 76 -7 76 57 0 164 -212 280 -397
217z"/>
<path d="M8209 1854 c-31 -9 -34 -51 -29 -439 l5 -390 55 -3 c79 -5 80 -2 73
194 -4 96 -2 165 3 165 52 8 296 3 302 -5 4 -6 7 -87 7 -181 l0 -170 65 0 65
0 1 400 c2 453 4 440 -70 429 -70 -11 -70 -10 -63 -181 5 -115 4 -154 -6 -160
-13 -9 -261 -14 -291 -6 -18 5 -19 14 -13 158 5 113 3 156 -6 168 -13 16 -70
29 -98 21z"/>
<path d="M9150 1844 c-9 -10 -17 -679 -11 -811 1 -16 117 -18 126 -3 10 16 8
801 -2 810 -16 15 -102 18 -113 4z"/>
<path d="M10020 1848 c-36 -5 -145 -7 -244 -3 -202 6 -206 5 -206 -60 0 -62
14 -69 114 -61 68 6 85 4 95 -8 10 -12 11 -88 6 -351 -9 -377 -15 -347 71
-349 69 -2 67 -9 64 301 -2 153 -4 304 -4 335 -1 79 6 84 101 71 105 -14 127
-4 131 58 4 69 -21 82 -128 67z"/>
<path d="M10780 1848 c-74 -5 -173 -6 -220 -3 -58 3 -93 1 -108 -8 l-24 -12 0
-394 c1 -315 3 -396 14 -402 22 -14 492 -11 506 3 13 13 16 59 6 96 -6 22 -8
22 -200 22 -107 0 -194 3 -195 8 -5 74 -4 214 3 218 5 3 80 5 167 5 l159 -2
12 35 c29 89 2 102 -187 92 -163 -9 -163 -9 -163 84 0 149 -6 145 216 132 178
-11 194 -6 194 60 0 72 -9 76 -180 66z"/>
<path d="M12580 1848 c-36 -5 -145 -6 -243 -3 -203 7 -207 5 -207 -60 0 -62
14 -69 114 -61 67 5 85 4 95 -8 9 -11 12 -98 9 -353 l-3 -338 40 -8 c25 -6 50
-5 68 2 l29 11 -3 340 c-3 253 0 343 8 351 9 9 31 10 90 2 106 -14 127 -5 131
59 3 46 -21 81 -53 77 -5 -1 -39 -6 -75 -11z"/>
<path d="M13015 1848 c-34 -19 -35 -25 -29 -313 6 -324 13 -361 79 -425 128
-126 313 -126 433 0 71 74 81 128 83 435 1 132 1 249 1 260 -2 49 -92 73 -128
34 -18 -20 -19 -37 -15 -283 4 -292 -1 -329 -52 -376 -47 -44 -169 -45 -209
-2 -58 60 -62 88 -55 383 5 267 5 269 -16 284 -25 18 -64 19 -92 3z"/>
<path d="M19189 1844 c-15 -18 -17 -800 -2 -815 14 -14 100 -16 113 -3 15 15
16 802 0 818 -16 16 -97 16 -111 0z"/>
<path d="M21145 1853 c-53 -8 -52 -4 -47 -287 3 -168 1 -265 -5 -269 -6 -4
-39 39 -74 94 -35 55 -82 128 -104 162 -22 34 -46 74 -55 89 -109 192 -123
208 -184 208 -25 0 -47 -4 -51 -9 -8 -14 -12 -800 -4 -813 7 -11 103 -13 121
-2 6 4 8 114 6 272 -2 186 0 266 8 269 6 2 31 -28 55 -68 24 -39 63 -100 87
-136 23 -35 42 -67 42 -70 0 -3 17 -31 38 -62 46 -70 58 -90 72 -119 32 -72
60 -93 119 -90 l56 3 3 398 c3 465 7 443 -83 430z"/>
<path d="M5668 1833 c-9 -10 -24 -43 -34 -73 -9 -30 -25 -76 -36 -102 -10 -26
-18 -53 -18 -60 0 -7 -9 -30 -20 -51 -11 -20 -20 -45 -20 -54 0 -10 -8 -36
-19 -58 -17 -37 -25 -57 -53 -140 -6 -16 -18 -46 -28 -65 -9 -19 -20 -48 -24
-64 -4 -15 -16 -41 -27 -56 -16 -21 -19 -36 -14 -59 9 -40 12 -42 74 -34 59 7
81 35 102 133 14 66 24 70 173 70 l126 0 20 -32 c11 -18 25 -59 31 -92 14 -68
42 -86 117 -78 54 5 61 21 34 75 -11 23 -23 53 -27 67 -4 14 -14 34 -21 45 -8
11 -14 26 -14 35 0 8 -9 32 -20 53 -11 20 -20 44 -20 52 0 9 -9 33 -20 55 -11
22 -20 47 -20 56 0 9 -7 30 -15 47 -17 37 -43 111 -76 210 -11 34 -29 85 -40
115 -11 29 -87 32 -111 5z m79 -259 c6 -21 24 -70 39 -109 14 -38 27 -86 28
-105 l1 -35 -86 -3 c-102 -3 -115 5 -104 68 4 22 11 42 16 45 4 3 13 25 19 48
16 62 52 138 64 134 6 -2 16 -21 23 -43z"/>
<path d="M6353 1837 c-9 -14 -13 -791 -4 -805 10 -15 99 -21 117 -7 15 11 16
29 10 166 -7 179 -7 181 67 186 57 3 117 -28 117 -61 0 -11 50 -121 109 -236
25 -49 32 -56 67 -62 98 -17 124 10 81 84 -130 223 -154 267 -148 275 3 5 23
21 43 34 64 44 94 90 101 159 18 167 -57 258 -219 265 -272 13 -334 14 -341 2z
m368 -128 c88 -38 94 -162 9 -208 -56 -31 -218 -41 -244 -15 -19 18 -23 192
-6 225 16 29 171 28 241 -2z"/>
<path d="M13951 1836 c-8 -9 -10 -136 -9 -412 l3 -399 55 -3 c79 -5 80 -1 73
184 l-6 153 29 12 c40 15 112 6 130 -17 13 -18 58 -107 134 -266 25 -53 36
-68 53 -68 12 0 38 -3 57 -6 64 -10 77 11 46 76 -14 30 -35 69 -46 85 -11 17
-27 44 -35 60 -9 17 -29 52 -46 79 -35 56 -33 69 16 98 136 80 147 279 21 383
-50 40 -49 40 -323 49 -109 4 -144 2 -152 -8z m347 -121 c63 -19 82 -44 82
-110 0 -94 -46 -126 -189 -131 -60 -3 -99 0 -107 7 -15 12 -21 200 -8 233 8
22 151 22 222 1z"/>
<path d="M14865 1830 c-8 -19 -8 -788 0 -800 4 -6 103 -10 255 -10 279 0 270
-2 270 73 0 58 -11 61 -215 58 -212 -3 -192 -16 -194 126 0 62 3 94 11 99 7 5
82 8 168 8 l155 1 3 48 c5 79 1 81 -169 74 -177 -8 -170 -12 -165 110 5 124
-6 117 160 108 218 -11 217 -11 232 10 17 22 18 68 4 96 -14 26 -505 25 -515
-1z"/>
<path d="M16540 1835 c-13 -15 -18 -785 -5 -804 13 -22 326 -14 388 10 67 25
128 82 159 146 35 74 35 411 -1 493 -48 111 -103 150 -221 156 -247 12 -309
12 -320 -1z m347 -129 c74 -31 88 -76 88 -276 0 -243 -31 -283 -213 -278 l-97
3 -3 274 c-2 205 1 277 10 288 17 20 157 13 215 -11z"/>
<path d="M17469 1834 c-5 -7 -8 -175 -7 -410 l3 -399 240 -3 c302 -3 287 -7
283 66 l-3 57 -195 5 -195 5 -3 113 c-2 85 0 112 10 113 7 1 80 2 163 3 l149
1 9 38 c6 26 6 47 -2 64 l-12 25 -157 -3 -157 -4 0 110 0 110 183 -3 c133 -3
187 0 197 8 19 16 20 94 2 109 -19 15 -495 10 -508 -5z"/>
<path d="M15899 1679 c-6 -11 -10 -49 -9 -82 1 -34 2 -67 1 -74 -1 -8 -30 -13
-93 -15 l-93 -3 -6 -45 c-10 -74 -2 -80 101 -80 92 0 97 -2 91 -42 -14 -104 8
-158 64 -158 42 0 60 35 60 119 l0 76 85 3 c94 3 100 7 100 68 0 56 -14 65
-98 63 -94 -2 -96 -1 -88 87 6 68 5 73 -16 88 -33 23 -85 21 -99 -5z"/>
</g>
</svg>
